<svg width="31" height="31" viewBox="0 0 31 31" fill="none" xmlns="http://www.w3.org/2000/svg">
<path d="M15.25 0.721688C15.4047 0.632372 15.5953 0.632371 15.75 0.721688L28.1734 7.89434C28.3281 7.98365 28.4234 8.14872 28.4234 8.32735V22.6726C28.4234 22.8513 28.3281 23.0163 28.1734 23.1057L15.75 30.2783C15.5953 30.3676 15.4047 30.3676 15.25 30.2783L2.82661 23.1057C2.67191 23.0163 2.57661 22.8513 2.57661 22.6726V8.32735C2.57661 8.14872 2.67191 7.98365 2.82661 7.89434L15.25 0.721688Z" fill="#DC8400" stroke="#3C2613"/>
<path d="M6.04071 10.0387L15.5 4.57735L24.9593 10.0387V20.9613L15.5 26.4227L6.04071 20.9613V10.0387Z" fill="#FFB547" stroke="#3C2613"/>
<path d="M15.5 4.5V0.5M25 10L28.5 8M25 21L28.5 23M15.5 26V30M6 21L2.5 23M6 10L2.5 8" stroke="#3C2613"/>
</svg>
